<?xml version="1.0" encoding="UTF-8"?>
<svg width="83px" height="83px" viewBox="0 0 83 83" version="1.1" xmlns="http://www.w3.org/2000/svg" xmlns:xlink="http://www.w3.org/1999/xlink">
    <!-- Generator: Sketch 49.1 (51147) - http://www.bohemiancoding.com/sketch -->
    <title>bayer-logo</title>
    <desc>Created with Sketch.</desc>
    <defs></defs>
    <g id="小程序端效果图P1" stroke="none" stroke-width="1" fill="none" fill-rule="evenodd">
        <g id="1-进入小程序" transform="translate(-146.000000, -154.000000)" fill-rule="nonzero">
            <g id="bayer-logo" transform="translate(146.000000, 154.000000)">
                <g id="Group" transform="translate(8.000000, 7.000000)" fill="#10384F">
                    <path d="M31.04,5.33 L35.82,5.33 C36.35,5.33 36.78,4.9 36.78,4.37 C36.78,3.84 36.35,3.41 35.82,3.41 L31.04,3.41 L31.04,5.33 Z M31.04,9.98 L35.96,9.98 C36.56,9.98 37.05,9.49 37.05,8.89 C37.05,8.29 36.56,7.8 35.96,7.8 L31.04,7.8 L31.04,9.98 Z M38.73,6.46 C39.38,7.09 39.78,7.98 39.78,8.96 C39.78,10.88 38.22,12.44 36.3,12.45 L28.3,12.45 L28.3,0.95 L36.17,0.95 C38.02,0.95 39.51,2.45 39.51,4.3 C39.51,5.12 39.21,5.87 38.73,6.46 Z" id="Shape"></path>
                    <path d="M40.57,26.11 L37.64,26.11 L36.72,24.2 L30.3,24.2 L29.37,26.11 L26.44,26.11 L32.18,14.63 L34.84,14.63 L40.57,26.11 Z M33.49,17.57 L31.47,21.74 L35.5,21.74 L33.49,17.57 Z" id="Shape"></path>
                    <polygon id="Shape" points="37.39 28.57 40.68 28.57 34.86 36.05 34.86 40.05 32.13 40.05 32.13 36.05 26.31 28.57 29.6 28.57 33.5 33.8"></polygon>
                    <polygon id="Shape" points="52.61 28.57 52.61 31.03 44.96 31.03 44.96 32.95 52.34 32.95 52.34 35.4 44.96 35.4 44.96 37.59 52.61 37.59 52.61 40.05 42.23 40.05 42.23 28.57"></polygon>
                    <path d="M61.06,35.68 L59.01,35.68 L59.01,40.05 L56.28,40.05 L56.28,28.57 L63.26,28.57 C65.22,28.58 66.8,30.17 66.8,32.13 C66.8,33.75 65.73,35.11 64.25,35.54 L67.62,40.05 L64.34,40.05 L61.06,35.68 Z M62.98,31.03 L59.01,31.03 L59.01,33.22 L62.98,33.22 C63.58,33.22 64.07,32.73 64.07,32.13 C64.06,31.52 63.58,31.04 62.98,31.03 Z" id="Shape"></path>
                    <path d="M27.58,40.05 L24.65,40.05 L23.73,38.14 L17.3,38.14 L16.37,40.05 L13.44,40.05 L19.18,28.57 L21.84,28.57 L27.58,40.05 Z M20.51,31.51 L18.49,35.68 L22.52,35.68 L20.51,31.51 Z" id="Shape"></path>
                    <path d="M3.18,32.95 L7.96,32.95 C8.49,32.95 8.92,32.52 8.92,31.99 C8.92,31.46 8.49,31.03 7.96,31.03 L3.18,31.03 L3.18,32.95 Z M3.18,37.6 L8.1,37.6 C8.7,37.6 9.19,37.11 9.19,36.5 C9.19,35.9 8.7,35.41 8.1,35.41 L3.18,35.41 L3.18,37.6 Z M10.86,34.08 C11.51,34.71 11.91,35.6 11.91,36.58 C11.91,38.5 10.35,40.06 8.43,40.07 L0.43,40.07 L0.43,28.58 L8.3,28.58 C10.15,28.58 11.64,30.08 11.64,31.93 C11.65,32.75 11.35,33.5 10.86,34.08 Z" id="Shape"></path>
                    <polygon id="Shape" points="38.69 42.51 38.69 44.97 31.03 44.97 31.03 46.89 38.41 46.88 38.41 49.34 31.03 49.34 31.03 51.53 38.69 51.53 38.69 53.99 28.3 53.99 28.3 42.51"></polygon>
                    <path d="M36.77,60.28 C36.77,59.68 36.29,59.19 35.69,59.19 L31.04,59.19 L31.04,61.38 L35.69,61.38 C36.29,61.37 36.77,60.88 36.77,60.28 Z M28.3,68.2 L28.3,56.72 L35.97,56.72 C37.92,56.73 39.5,58.32 39.5,60.28 C39.5,61.77 38.59,63.04 37.29,63.58 L40.74,68.21 L37.46,68.21 L34.18,63.84 L31.04,63.84 L31.04,68.21 L28.3,68.21 L28.3,68.2 Z" id="Shape"></path>
                </g>
                <g id="Group">
                    <path d="M82.92,38.93 C81.59,17.21 63.56,0 41.5,0 C19.44,0 1.41,17.21 0.08,38.93 C0.13,39.8 0.21,40.67 0.32,41.52 C1.22,48.75 3.97,55.39 8.09,60.97 C15.65,71.21 27.8,77.86 41.5,77.86 C22.32,77.86 6.56,62.93 5.23,44.07 C5.17,43.22 5.14,42.36 5.14,41.5 C5.14,40.64 5.17,39.78 5.23,38.93 C6.56,20.08 22.32,5.14 41.5,5.14 C55.21,5.14 67.36,11.79 74.91,22.03 C79.03,27.62 81.78,34.28 82.68,41.52 C82.78,42.36 82.87,43.21 82.92,44.07 C82.97,43.22 83,42.36 83,41.5 C83,40.64 82.97,39.78 82.92,38.93" id="Shape" fill="#89D329"></path>
                    <path d="M0.08,44.07 C1.41,65.79 19.44,83 41.5,83 C63.56,83 81.59,65.79 82.92,44.07 C82.87,43.2 82.79,42.33 82.68,41.48 C81.78,34.25 79.03,27.61 74.91,22.03 C67.35,11.79 55.2,5.14 41.5,5.14 C60.68,5.14 76.44,20.07 77.77,38.93 C77.83,39.78 77.86,40.64 77.86,41.5 C77.86,42.36 77.83,43.22 77.77,44.07 C76.44,62.92 60.68,77.86 41.5,77.86 C27.79,77.86 15.64,71.21 8.09,60.97 C3.97,55.38 1.22,48.72 0.32,41.48 C0.22,40.64 0.13,39.79 0.08,38.93 C0.03,39.78 0,40.64 0,41.5 C0,42.36 0.03,43.22 0.08,44.07" id="Shape" fill="#00BCFF"></path>
                </g>
            </g>
        </g>
    </g>
</svg>