<?xml version="1.0" encoding="UTF-8"?>
<svg width="20px" height="20px" viewBox="0 0 20 20" version="1.1" xmlns="http://www.w3.org/2000/svg" xmlns:xlink="http://www.w3.org/1999/xlink">
    <!-- Generator: Sketch 49.1 (51147) - http://www.bohemiancoding.com/sketch -->
    <title>btn-service</title>
    <desc>Created with Sketch.</desc>
    <defs></defs>
    <g id="btn-service" stroke="none" stroke-width="1" fill="none" fill-rule="evenodd">
        <circle id="Oval-2" fill="#FFFFFF" cx="10" cy="8" r="4.5"></circle>
        <path d="M15.6644754,9.98326538 C15.8818262,9.36244248 16,8.69502173 16,8 C16,4.6862915 13.3137085,2 10,2 C6.6862915,2 4,4.6862915 4,8 C4,8.70282236 4.12084138,9.37742071 4.34288042,10.0041513" id="Oval-2" stroke="#FFFFFF" stroke-linecap="round" stroke-linejoin="round"></path>
        <path d="M15.6485807,10.4665041 C16.4690799,10.4665041 17.1433198,9.55228475 17.1433198,9 C17.1433198,8.44771525 17.0213647,8.01114887 16.4690799,8.01114887 C15.9167952,8.01114887 15.5214995,8.44771525 15.5214995,9 C15.5214995,9.55228475 14.8280814,10.4665041 15.6485807,10.4665041 Z" id="Oval-3" fill="#FFFFFF"></path>
        <path d="M3.22954324,10.4553553 C4.05004249,10.4553553 4.72428239,9.54113588 4.72428239,8.98885113 C4.72428239,8.43656638 4.60232724,8 4.05004249,8 C3.49775774,8 3.10246209,8.43656638 3.10246209,8.98885113 C3.10246209,9.54113588 2.409044,10.4553553 3.22954324,10.4553553 Z" id="Oval-3" fill="#FFFFFF" transform="translate(3.776512, 9.227678) scale(-1, 1) translate(-3.776512, -9.227678) "></path>
        <path d="M6.26900072,12.6991969 C7.29325536,13.5135064 8.58981435,14 10,14 C11.4101857,14 12.7067446,13.5135064 13.7309993,12.6991969 C16.2697681,13.7454806 18,15.9291453 18,19 L2,19 C2,15.9291453 3.73023195,13.7454806 6.26900072,12.6991969 Z" id="Combined-Shape" fill="#FFFFFF"></path>
    </g>
</svg>