<?xml version="1.0" encoding="UTF-8"?>
<svg width="16px" height="16px" viewBox="0 0 16 16" version="1.1" xmlns="http://www.w3.org/2000/svg" xmlns:xlink="http://www.w3.org/1999/xlink">
    <!-- Generator: Sketch 49.1 (51147) - http://www.bohemiancoding.com/sketch -->
    <title>map-tel</title>
    <desc>Created with Sketch.</desc>
    <defs>
        <path d="M11.3194403,6.21823794 L14.3800223,5.55380007 C15.212722,5.37302491 16.0343057,5.90151414 16.2150808,6.7342138 C16.2384278,6.84175648 16.2502018,6.95148842 16.2502018,7.06153618 L16.2501939,7.43120153 C16.2501939,8.71873449 15.450757,9.87093449 14.2446934,10.3216581 C12.0973535,11.1241504 9.76585635,11.5253965 7.25020192,11.5253965 C4.73455342,11.5253965 2.40306131,11.1241523 0.25572559,10.3216637 L0.255720227,10.3216781 C-0.950353801,9.87095185 -1.74979799,8.71874249 -1.74979799,7.43119882 L-1.74979799,7.06153618 C-1.74979799,6.20943972 -1.05903733,5.51867905 -0.206940863,5.51867905 C-0.0968931003,5.51867905 0.0128388383,5.53045306 0.120381515,5.55380007 L3.18096349,6.21823794 C3.77064273,6.34625451 4.21597314,6.83147335 4.29305909,7.4299444 L4.29305909,7.4299444 C4.36657972,8.00073539 4.85255836,8.42813241 5.42806478,8.42813241 L9.07233906,8.42813241 C9.64784548,8.42813241 10.1338241,8.00073539 10.2073447,7.4299444 L10.2073447,7.4299444 C10.2844307,6.83147335 10.7297611,6.34625451 11.3194403,6.21823794 Z" id="path-1"></path>
    </defs>
    <g id="map-tel" stroke="none" stroke-width="1" fill="none" fill-rule="evenodd">
        <g id="Combined-Shape" transform="translate(7.250202, 8.521876) rotate(-315.000000) translate(-7.250202, -8.521876) ">
            <use fill="#A6A6A6" fill-rule="evenodd" xlink:href="#path-1"></use>
            <path stroke="#A6A6A6" stroke-width="1.02857142" d="M11.4285478,6.72081664 C11.0514766,6.80267703 10.7667094,7.11295093 10.7174166,7.49564412 C10.6108558,8.32294875 9.90647823,8.94241812 9.07233906,8.94241812 L5.42806478,8.94241812 C4.59392561,8.94241812 3.88954802,8.32294875 3.7829872,7.49564412 C3.73369447,7.11295093 3.44892729,6.80267703 3.07185603,6.72081664 L0.0112740559,6.05637877 C-0.0604210621,6.0408141 -0.133575688,6.03296476 -0.206940863,6.03296476 C-0.775005172,6.03296476 -1.23551228,6.49347187 -1.23551228,7.06153618 L-1.23551228,7.43119882 C-1.23551228,8.50415455 -0.569307271,9.46432596 0.435759922,9.83991959 C2.52408116,10.6203536 4.79463668,11.0111108 7.25020192,11.0111108 C9.70577293,11.0111108 11.9763334,10.6203518 14.0646587,9.83991408 C15.0697111,9.46431129 15.7359082,8.50414511 15.7359082,7.43119054 L15.7359161,7.06153618 C15.7359161,6.988171 15.7280668,6.91501638 15.7125021,6.84332126 C15.5919853,6.28818815 15.0442629,5.935862 14.4891298,6.05637877 L11.4285478,6.72081664 Z"></path>
        </g>
    </g>
</svg>