<?xml version="1.0" standalone="no"?>
<!DOCTYPE svg PUBLIC "-//W3C//DTD SVG 20010904//EN"
 "http://www.w3.org/TR/2001/REC-SVG-20010904/DTD/svg10.dtd">
<svg version="1.0" xmlns="http://www.w3.org/2000/svg"
 width="100.000000pt" height="100.000000pt" viewBox="0 0 100.000000 100.000000"
 preserveAspectRatio="xMidYMid meet">

<g transform="translate(0.000000,100.000000) scale(0.100000,-0.100000)"
fill="#000000" stroke="none">
<path d="M98 944 c-57 -30 -58 -39 -58 -444 0 -407 1 -414 60 -445 24 -13 88
-15 400 -15 407 0 414 1 445 60 13 24 15 88 15 400 0 407 -1 414 -60 445 -43
22 -761 22 -802 -1z m780 -66 c17 -17 17 -739 0 -756 -17 -17 -739 -17 -756 0
-17 17 -17 739 0 756 17 17 739 17 756 0z"/>
<path d="M393 660 c-51 -21 -14 -70 53 -70 19 0 24 -5 24 -25 0 -22 -4 -25
-39 -25 -55 0 -62 -14 -59 -112 l3 -83 80 0 c71 0 80 2 83 19 5 26 -24 46 -65
46 -29 0 -33 3 -33 25 0 21 5 25 31 25 61 0 69 12 69 103 0 51 -5 88 -12 95
-14 14 -102 15 -135 2z"/>
<path d="M633 660 c-28 -11 -30 -46 -4 -60 11 -5 33 -10 50 -10 26 0 31 -4 31
-25 0 -20 -5 -25 -24 -25 -42 0 -76 -18 -76 -40 0 -22 34 -40 76 -40 19 0 24
-5 24 -25 0 -22 -4 -25 -33 -25 -41 0 -70 -20 -65 -46 3 -16 15 -20 73 -25 42
-4 75 -2 83 3 17 14 17 299 0 316 -14 14 -102 15 -135 2z"/>
<path d="M225 648 c-3 -8 -4 -79 -3 -158 l3 -145 30 0 30 0 0 155 0 155 -28 3
c-16 2 -29 -2 -32 -10z"/>
</g>
</svg>
