<?xml version="1.0" encoding="UTF-8"?>
<svg width="29px" height="28px" viewBox="0 0 29 28" version="1.1" xmlns="http://www.w3.org/2000/svg" xmlns:xlink="http://www.w3.org/1999/xlink">
    <!-- Generator: Sketch 49 (51002) - http://www.bohemiancoding.com/sketch -->
    <title>star</title>
    <desc>Created with Sketch.</desc>
    <defs></defs>
    <g id="Page-1" stroke="none" stroke-width="1" fill="none" fill-rule="evenodd">
        <g id="2.2订单详情-待评价-服务评价" transform="translate(-251.000000, -271.000000)" fill="#B6B6B6" fill-rule="nonzero">
            <path d="M278.512028,283.1385 L278.512417,283.1385 L271.450556,288.482306 L274.171,297.176944 C274.213583,297.312611 274.236806,297.456639 274.236806,297.607333 C274.236806,298.366139 273.648472,298.982 272.922389,298.982 C272.6345,298.982 272.368611,298.884861 272.15225,298.72025 L272.151917,298.721 L265.036028,293.336278 L257.919722,298.72025 C257.703361,298.884861 257.437528,298.982 257.149611,298.982 C256.423556,298.982 255.835194,298.366139 255.835194,297.607333 C255.835194,297.456639 255.858417,297.312583 255.901,297.176944 L258.621528,288.482306 L251.559944,283.1385 C251.230194,282.888778 251.015667,282.483278 251.015667,282.02475 C251.015667,281.2655 251.604111,280.65 252.330083,280.65 L261.071889,280.65 L263.779389,271.997139 C263.944028,271.43425 264.444222,271.025528 265.036,271.025528 C265.627778,271.025528 266.127917,271.434222 266.292611,271.997139 L268.999722,280.65 L277.741889,280.65 C278.467944,280.65 279.056278,281.265472 279.056278,282.02475 C279.056278,282.483306 278.841778,282.888778 278.512028,283.1385 Z" id="star"></path>
        </g>
    </g>
</svg>