<?xml version="1.0" encoding="UTF-8"?>
<svg width="24px" height="22px" viewBox="0 0 24 22" version="1.1" xmlns="http://www.w3.org/2000/svg" xmlns:xlink="http://www.w3.org/1999/xlink">
    <!-- Generator: Sketch 55.1 (78136) - https://sketchapp.com -->
    <title>+</title>
    <desc>Created with Sketch.</desc>
    <g id="小程序" stroke="none" stroke-width="1" fill="none" fill-rule="evenodd">
        <g id="13.2订单详情-服务明细" transform="translate(-335.000000, -437.000000)">
            <g id="H5/模块/标签栏/服务项目" transform="translate(0.000000, 376.000000)">
                <g id="编组" transform="translate(266.000000, 61.000000)">
                    <g id="+" transform="translate(69.000000, 0.000000)">
                        <path d="M0.5,0.5 L0.5,21.5 L22,21.5 C22.8284271,21.5 23.5,20.8284271 23.5,20 L23.5,2 C23.5,1.17157288 22.8284271,0.5 22,0.5 L0.5,0.5 Z" id="矩形复制-2" stroke="#CCCCCC"></path>
                        <path d="M12.5,10.5 L17.5,10.5 C17.7761424,10.5 18,10.7238576 18,11 C18,11.2761424 17.7761424,11.5 17.5,11.5 L12.5,11.5 L12.5,16.5 C12.5,16.7761424 12.2761424,17 12,17 C11.7238576,17 11.5,16.7761424 11.5,16.5 L11.5,11.5 L6.5,11.5 C6.22385763,11.5 6,11.2761424 6,11 C6,10.7238576 6.22385763,10.5 6.5,10.5 L11.5,10.5 L11.5,5.5 C11.5,5.22385763 11.7238576,5 12,5 C12.2761424,5 12.5,5.22385763 12.5,5.5 L12.5,10.5 Z" id="形状结合" fill="#B3B3B3"></path>
                    </g>
                </g>
            </g>
        </g>
    </g>
</svg>