<?xml version="1.0" encoding="UTF-8"?>
<svg width="128px" height="128px" viewBox="0 0 128 128" version="1.1" xmlns="http://www.w3.org/2000/svg" xmlns:xlink="http://www.w3.org/1999/xlink">
    <!-- Generator: Sketch 49.1 (51147) - http://www.bohemiancoding.com/sketch -->
    <title>empty-order</title>
    <desc>Created with Sketch.</desc>
    <defs>
        <rect id="path-1" x="24" y="14" width="80" height="100" rx="5"></rect>
        <path d="M25,36 L103,36 L103,37 L25,37 L25,36 Z" id="path-2"></path>
        <mask id="mask-3" maskContentUnits="userSpaceOnUse" maskUnits="objectBoundingBox" x="0" y="0" width="78" height="1" fill="white">
            <use xlink:href="#path-2"></use>
        </mask>
        <path d="M8,6 L8,2 C8,0.8954305 8.8954305,2.02906125e-16 10,0 L18,0 C19.1045695,-2.02906125e-16 20,0.8954305 20,2 L20,6 L26,6 C27.1045695,6 28,6.8954305 28,8 L28,15 C28,16.1045695 27.1045695,17 26,17 L2,17 C0.8954305,17 1.3527075e-16,16.1045695 0,15 L0,8 C-1.3527075e-16,6.8954305 0.8954305,6 2,6 L8,6 Z" id="path-4"></path>
    </defs>
    <g id="empty-order" stroke="none" stroke-width="1" fill="none" fill-rule="evenodd">
        <g id="Rectangle-13">
            <use fill="#FFFFFF" fill-rule="evenodd" xlink:href="#path-1"></use>
            <rect stroke="#00BCFF" stroke-width="1" x="24.5" y="14.5" width="79" height="99" rx="5"></rect>
        </g>
        <rect id="Rectangle" fill-opacity="0.2" fill="#00BCFF" x="25" y="30" width="78" height="74"></rect>
        <rect id="Rectangle-2" fill="#00BCFF" x="25" y="30" width="78" height="1"></rect>
        <use id="Rectangle-2-Copy" stroke="#00BCFF" mask="url(#mask-3)" stroke-width="2" stroke-dasharray="1,4" xlink:href="#path-2"></use>
        <rect id="Rectangle-15" fill="#00BCFF" x="42" y="52" width="44" height="3" rx="1.5"></rect>
        <rect id="Rectangle-15-Copy" fill="#00BCFF" x="42" y="68" width="44" height="3" rx="1.5"></rect>
        <rect id="Rectangle-15-Copy-2" fill="#00BCFF" x="42" y="83" width="44" height="3" rx="1.5"></rect>
        <g id="Group" transform="translate(50.000000, 6.000000)">
            <g id="Combined-Shape">
                <use fill="#CCF2FF" fill-rule="evenodd" xlink:href="#path-4"></use>
                <path stroke="#00BCFF" stroke-width="1" d="M8.5,2 L8.5,6.5 L2,6.5 C1.17157288,6.5 0.5,7.17157288 0.5,8 L0.5,15 C0.5,15.8284271 1.17157288,16.5 2,16.5 L26,16.5 C26.8284271,16.5 27.5,15.8284271 27.5,15 L27.5,8 C27.5,7.17157288 26.8284271,6.5 26,6.5 L19.5,6.5 L19.5,2 C19.5,1.17157288 18.8284271,0.5 18,0.5 L10,0.5 C9.17157288,0.5 8.5,1.17157288 8.5,2 Z"></path>
            </g>
            <rect id="Rectangle-3" fill="#00BCFF" x="3" y="13" width="22" height="1" rx="0.5"></rect>
            <rect id="Rectangle-3-Copy" fill="#00BCFF" x="11" y="3" width="6" height="1" rx="0.5"></rect>
            <rect id="Rectangle-3-Copy-2" fill="#00BCFF" x="11" y="5" width="6" height="1" rx="0.5"></rect>
        </g>
    </g>
</svg>