<svg xmlns="http://www.w3.org/2000/svg" width="22.835" height="19.898" viewBox="0 0 22.835 19.898">
  <defs>
    <style>
      .cls-1 {
        fill: #09bb07;
      }
    </style>
  </defs>
  <g id="Group_165" data-name="Group 165" transform="translate(-70.335 -772.956)">
    <path id="Path_309" data-name="Path 309" class="cls-1" d="M78.645,785.519a.73.73,0,0,1-.343.078.75.75,0,0,1-.663-.391l-.054-.1-2.09-4.493a.342.342,0,0,1-.025-.156.359.359,0,0,1,.371-.366.426.426,0,0,1,.238.078l2.461,1.724a1.293,1.293,0,0,0,.634.182,1.06,1.06,0,0,0,.4-.079l11.54-5.066a12.3,12.3,0,0,0-9.343-3.97c-6.3,0-11.433,4.205-11.433,9.4a8.838,8.838,0,0,0,3.943,7.1.768.768,0,0,1,.317.6.721.721,0,0,1-.054.235c-.184.7-.5,1.855-.5,1.906a.958.958,0,0,0-.054.287.359.359,0,0,0,.371.366.3.3,0,0,0,.213-.078l2.486-1.436a1.274,1.274,0,0,1,.609-.182,1.455,1.455,0,0,1,.343.053,13.47,13.47,0,0,0,3.732.523c6.3,0,11.433-4.206,11.433-9.4a8.181,8.181,0,0,0-1.3-4.362l-13.149,7.495-.079.053Zm0,0"/>
  </g>
</svg>
