<svg xmlns="http://www.w3.org/2000/svg" width="19.632" height="19.632" viewBox="0 0 19.632 19.632">
  <defs>
    <style>
      .cls-1 {
        fill: #02a9f1;
      }
    </style>
  </defs>
  <g id="Group_164" data-name="Group 164" transform="translate(-71.937 -722.461)">
    <g id="Group_163" data-name="Group 163">
      <path id="Path_308" data-name="Path 308" class="cls-1" d="M91.569,735.822,85.254,733.7a10.968,10.968,0,0,0,1-2.15,10.1,10.1,0,0,0,.593-2.207l-4.088-.034v-1.4l4.95-.035v-.987H82.761v-2.247H80.336v2.247H75.717v.987l4.619-.033v1.5H76.631v.782h7.626a7.335,7.335,0,0,1-.376,1.424c-.292.79-.593,1.482-.593,1.482a23.457,23.457,0,0,0-5.468-1.254c-1.887,0-4.182.758-4.4,2.958a3.354,3.354,0,0,0,2.887,3.829,7.225,7.225,0,0,0,4.958-.72,11.548,11.548,0,0,0,2.9-2.339l7.36,3.574a3.633,3.633,0,0,1-3.583,3.016H75.572a3.631,3.631,0,0,1-3.635-3.628V726.1a3.632,3.632,0,0,1,3.628-3.635H87.934a3.632,3.632,0,0,1,3.635,3.629Zm-9.2-1.231s-2.3,2.9-5,2.9-3.277-1.378-3.277-2.369.563-2.067,2.867-2.223,5.415,1.691,5.415,1.691Zm0,0"/>
    </g>
  </g>
</svg>
