<?xml version="1.0" encoding="UTF-8"?>
<svg width="16px" height="16px" viewBox="0 0 16 16" version="1.1" xmlns="http://www.w3.org/2000/svg" xmlns:xlink="http://www.w3.org/1999/xlink">
    <!-- Generator: Sketch 60 (88103) - https://sketch.com -->
    <title>mdpi/图标/定位/location</title>
    <desc>Created with Sketch.</desc>
    <g id="图标/定位/location" stroke="none" stroke-width="1" fill="none" fill-rule="evenodd">
        <g id="定位" fill-rule="nonzero">
            <rect id="矩形" fill="#000000" opacity="0" x="0" y="0" width="16" height="16"></rect>
            <path d="M8,14.9917236 C7.83281734,14.9917236 7.74054391,14.9716572 7.68178375,14.9028079 C7.6464477,14.861412 4.09359255,10.6444471 3.14682645,8.60229566 C2.80478636,7.87075964 2.62428473,7.07643419 2.62428473,6.30127975 C2.62428473,3.37799773 5.03572178,1.00087342 8,1.00087342 C10.9642782,1.00087342 13.3757153,3.39443459 13.3757153,6.33570441 C13.3757153,7.22431792 13.2091402,7.8957347 12.800873,8.65290134 C11.6719744,10.7449229 8.35617452,14.8534174 8.32306097,14.8944136 C8.2834878,14.943884 8.21281572,14.9917236 8.00828239,14.9917236 L8,14.9917236 L8,14.9917236 Z M8,4.25629823 C6.86000492,4.25629823 5.93240983,5.18387733 5.93240983,6.32388841 C5.93240983,7.46389948 6.86000492,8.39147858 8,8.39147858 C9.13999508,8.39147858 10.0675902,7.46389948 10.0675902,6.32388841 C10.0675902,5.18387733 9.13999508,4.25629823 8,4.25629823 Z" id="形状" fill="#FF3162"></path>
        </g>
    </g>
</svg>