<?xml version="1.0" encoding="UTF-8"?>
<svg width="29px" height="28px" viewBox="0 0 29 28" version="1.1" xmlns="http://www.w3.org/2000/svg" xmlns:xlink="http://www.w3.org/1999/xlink">
    <!-- Generator: Sketch 49 (51002) - http://www.bohemiancoding.com/sketch -->
    <title>star-y</title>
    <desc>Created with Sketch.</desc>
    <defs></defs>
    <g id="Page-1" stroke="none" stroke-width="1" fill="none" fill-rule="evenodd">
        <g id="2.2订单详情-待评价-服务评价" transform="translate(-212.000000, -271.000000)" fill="#FFCC00" fill-rule="nonzero">
            <path d="M239.512028,283.1385 L232.450556,288.482306 L235.171,297.176944 C235.213583,297.312611 235.236806,297.456639 235.236806,297.607333 C235.236806,298.366139 234.648472,298.982 233.922389,298.982 C233.6345,298.982 233.368611,298.884861 233.15225,298.72025 L226.036028,293.336278 L218.919722,298.72025 C218.703361,298.884861 218.437528,298.982 218.149611,298.982 C217.423556,298.982 216.835194,298.366139 216.835194,297.607333 C216.835194,297.456639 216.858417,297.312583 216.901,297.176944 L219.621528,288.482306 L212.559944,283.1385 C212.230194,282.888778 212.015667,282.483278 212.015667,282.02475 C212.015667,281.2655 212.604111,280.65 213.330083,280.65 L222.071889,280.65 L224.779389,271.997139 C224.944028,271.43425 225.444222,271.025528 226.036,271.025528 C226.627778,271.025528 227.127917,271.434222 227.292611,271.997139 L229.999722,280.65 L238.741889,280.65 C239.467944,280.65 240.056278,281.265472 240.056278,282.02475 C240.056278,282.483306 239.841778,282.888778 239.512028,283.1385 Z" id="star-y"></path>
        </g>
    </g>
</svg>